<svg width="35" height="35" viewBox="0 0 35 35" fill="none" xmlns="http://www.w3.org/2000/svg">
<g id="assignment_24px">
<path id="icon/action/assignment_24px" fill-rule="evenodd" clip-rule="evenodd" d="M21.6125 5.83332H27.7083C29.3125 5.83332 30.625 7.14582 30.625 8.74999V29.1667C30.625 30.7708 29.3125 32.0833 27.7083 32.0833H7.29167C7.0875 32.0833 6.89792 32.0687 6.70833 32.0396C6.13958 31.9229 5.62917 31.6312 5.23542 31.2375C4.97292 30.9604 4.75417 30.6542 4.60833 30.3042C4.4625 29.9542 4.375 29.5604 4.375 29.1667V8.74999C4.375 8.34166 4.4625 7.96249 4.60833 7.62707C4.75417 7.27707 4.97292 6.95624 5.23542 6.69374C5.62917 6.29999 6.13958 6.00832 6.70833 5.89166C6.89792 5.84791 7.0875 5.83332 7.29167 5.83332H13.3875C14 4.14166 15.6042 2.91666 17.5 2.91666C19.3958 2.91666 21 4.14166 21.6125 5.83332ZM10.2083 14.5833V11.6667H24.7917V14.5833H10.2083ZM24.7917 20.4167V17.5H10.2083V20.4167H24.7917ZM20.4167 23.3333H10.2083V26.25H20.4167V23.3333ZM17.5 5.46874C18.0979 5.46874 18.5938 5.96457 18.5938 6.56249C18.5938 7.16041 18.0979 7.65624 17.5 7.65624C16.9021 7.65624 16.4062 7.16041 16.4062 6.56249C16.4062 5.96457 16.9021 5.46874 17.5 5.46874ZM7.29167 29.1667H27.7083V8.74999H7.29167V29.1667Z" fill="#ECECEC"/>
</g>
</svg>
